<?xml version="1.0" encoding="utf-8"?>
<!-- Generator: Adobe Illustrator 19.2.0, SVG Export Plug-In . SVG Version: 6.00 Build 0)  -->
<svg version="1.1" id="Layer_1" xmlns="http://www.w3.org/2000/svg" xmlns:xlink="http://www.w3.org/1999/xlink" x="0px" y="0px"
	 viewBox="0 0 381.1 135.7" style="enable-background:new 0 0 381.1 135.7;" xml:space="preserve">
<style type="text/css">
	.st0{fill:#CC0000;}
	.st1{fill:none;}
</style>
<title>rails-logo</title>
<polygon class="st0" points="8.4,83.8 3,98.8 16.2,102.9 21.1,89 "/>
<polygon class="st0" points="87.5,118.5 87.1,130.2 97.9,132.6 97.9,123.7 "/>
<polygon class="st0" points="91.2,82.8 87.5,93.4 99.2,99.1 100.4,89.4 "/>
<polygon class="st0" points="107.1,55.9 100.3,63.2 109.8,73.9 113.9,66.5 "/>
<polygon class="st0" points="122.8,45 131.7,41.7 133.9,47.1 126.8,52.5 "/>
<polygon class="st0" points="153.1,38.2 153.1,44.1 162.6,44.8 163.3,39.5 "/>
<polygon class="st0" points="39,37.6 29.5,48.1 41.7,56.8 51.1,45.3 "/>
<polygon class="st0" points="67.2,15.1 75.2,25.1 86.4,18.7 78.3,9.2 "/>
<polygon class="st0" points="107.9,2.5 110.4,12.4 124.4,12.4 123.2,2.5 "/>
<polygon class="st0" points="153.6,11.1 153.6,17.1 163.4,22.3 165.9,19 "/>
<rect x="205.5" y="122.1" class="st1" width="17" height="11.1"/>
<polygon class="st1" points="144.1,133.2 159.4,133.2 144.1,117.7 "/>
<rect x="145" y="86.1" class="st1" width="14.7" height="12"/>
<rect x="205.5" y="85.2" class="st1" width="16.4" height="18.4"/>
<path class="st0" d="M144.1,117.7l15.3,15.5h26.3l-20.5-20.3c0,0,12.1-0.4,15.3-16.6c3.9-19.6-8.1-28.4-25.3-28.2l-28.5-0.2v65.3
	h17.4V117.7z M145,86.1h14.7v12H145V86.1z"/>
<path class="st0" d="M205.5,122.1h17v11.1H240V83.5c0-2,0-11.2-11.5-14c-9.4-2.2-25.2-1.6-30.2,0c-6.6,2.1-10.7,7.8-10.7,13.8v49.8
	h17.9V122.1z M205.5,85.2h16.4v18.4h-16.4V85.2z"/>
<rect x="248.8" y="68.1" class="st0" width="18.8" height="65.1"/>
<polygon class="st0" points="295.2,68.1 277.1,68.1 277.1,116.6 277.1,133.2 313.3,133.2 313.3,133.2 320.8,133.2 320.8,116.6 
	295.2,116.6 "/>
<path class="st0" d="M360.9,91.2H344v-6.1h29v-18c0,0-24.1,0-29.9,0c-12.6,0-21.1,10.3-19.1,25.6c1.8,14.5,18.3,16,19.9,16.4
	c5,1.2,16.1-0.5,16.1,4.1c0,3.1-4.2,3.6-4.2,3.6l-30.8-0.2v16.6h34.2c13.3,0,15.9-2.9,17.3-21.8C378.1,90.5,360.9,91.2,360.9,91.2z"
	/>
<rect x="187.6" y="133.2" class="st0" width="17.9" height="0.1"/>
<rect x="222.4" y="133.2" class="st0" width="17.6" height="0.1"/>
<rect x="248.8" y="133.2" class="st0" width="18.8" height="0.1"/>
<polygon class="st0" points="277.1,133.2 277.1,133.2 295.2,133.2 313.3,133.2 313.3,133.2 "/>
<path class="st0" d="M105.4,52.9C153.6,11.1,211,60,211,60l3-2.2c0,0-59.7-58.7-115-38.9C44.4,38.5,21.6,91.6,12.3,133.2h72.2
	C80.6,105,82.8,72.5,105.4,52.9z"/>
</svg>
