<svg xmlns="http://www.w3.org/2000/svg" viewBox="0 0 372.61 130.7"><defs><style>.a{fill:#c00;}</style></defs><title>rails-logo</title><polygon class="a" points="5.4 81.3 0 96.3 13.2 100.4 18.1 86.5 5.4 81.3"/><polygon class="a" points="84.5 116 84.1 127.7 94.9 130.1 94.9 121.2 84.5 116"/><polygon class="a" points="88.2 80.3 84.5 90.9 96.2 96.6 97.4 86.9 88.2 80.3"/><polygon class="a" points="104.1 53.4 97.3 60.7 106.8 71.4 110.9 64 104.1 53.4"/><polygon class="a" points="119.8 42.5 128.7 39.2 130.9 44.6 123.8 50 119.8 42.5"/><polygon class="a" points="150.1 35.7 150.1 41.6 159.6 42.3 160.3 37 150.1 35.7"/><polygon class="a" points="36 35.1 26.5 45.6 38.7 54.3 48.1 42.8 36 35.1"/><polygon class="a" points="64.2 12.6 72.2 22.6 83.4 16.2 75.3 6.7 64.2 12.6"/><polygon class="a" points="104.9 0 107.4 9.9 121.4 9.9 120.2 0 104.9 0"/><polygon class="a" points="150.6 8.6 150.6 14.6 160.4 19.8 162.9 16.5 150.6 8.6"/><path class="a" d="M141.1,115.2l15.3,15.5h26.3l-20.5-20.3s12.1-.4,15.3-16.6c3.9-19.6-8.1-28.4-25.3-28.2l-28.5-.2v65.3h17.4V115.2ZM142,83.6h14.7v12H142v-12Z"/><path class="a" d="M203.5,119.6h17v11.1H238V81c0-2,0-11.2-11.5-14-9.4-2.2-25.2-1.6-30.2,0-6.6,2.1-10.7,7.8-10.7,13.8v49.8h17.9v-11Zm0-36.9h16.4v18.4H203.5V82.7Z"/><rect class="a" x="244.8" y="65.6" width="18.8" height="65.1"/><polygon class="a" points="289.2 65.6 271.1 65.6 271.1 114.1 271.1 130.7 307.3 130.7 307.3 130.7 314.8 130.7 314.8 114.1 289.2 114.1 289.2 65.6"/><path class="a" d="M356.9,88.7H340V82.6h29v-18H339.1c-12.6,0-21.1,10.3-19.1,25.6,1.8,14.5,18.3,16,19.9,16.4,5,1.2,16.1-.5,16.1,4.1,0,3.1-4.2,3.6-4.2,3.6l-30.8-.2v16.6h34.2c13.3,0,15.9-2.9,17.3-21.8C374.1,88,356.9,88.7,356.9,88.7Z"/><path class="a" d="M102.4,50.4C150.6,8.6,208,57.5,208,57.5l3-2.2S151.3-3.4,96,16.4C41.4,36,18.6,89.1,9.3,130.7H81.5C77.6,102.5,79.8,70,102.4,50.4Z"/></svg>
